<?xml version="1.0" encoding="utf-8"?>
<!-- Generator: Adobe Illustrator 17.1.0, SVG Export Plug-In . SVG Version: 6.00 Build 0)  -->
<!DOCTYPE svg PUBLIC "-//W3C//DTD SVG 1.1//EN" "http://www.w3.org/Graphics/SVG/1.1/DTD/svg11.dtd">
<svg version="1.1" id="Layer_1" xmlns="http://www.w3.org/2000/svg" xmlns:xlink="http://www.w3.org/1999/xlink" x="0px" y="0px"
	 viewBox="0 0 341 534" enable-background="new 0 0 341 534" xml:space="preserve">
<linearGradient id="SVGID_1_" gradientUnits="userSpaceOnUse" x1="7.3333" y1="262.9056" x2="330.6328" y2="262.9056">
	<stop  offset="0" style="stop-color:#F26E2C"/>
	<stop  offset="0.1973" style="stop-color:#F5892D"/>
	<stop  offset="0.4397" style="stop-color:#F9A52D"/>
	<stop  offset="0.6625" style="stop-color:#FDBA2C"/>
	<stop  offset="0.8565" style="stop-color:#FFC62B"/>
	<stop  offset="1" style="stop-color:#FFCB2B"/>
</linearGradient>
<path fill="none" stroke="url(#SVGID_1_)" stroke-width="9" stroke-miterlimit="10" d="M110.323,315.685L32.21,270.023
	c-12.619-7.377-20.376-20.896-20.376-35.514v-99.583c0-14.347,7.475-27.658,19.726-35.125l88.146-53.73
	c12.951-7.894,29.194-8.022,42.267-0.332l87.756,51.621c12.565,7.391,20.279,20.879,20.279,35.457v102.295
	c0,14.488-7.621,27.907-20.063,35.329l-83.711,49.933c-12.442,7.422-20.063,20.841-20.063,35.329v59.12
	c0,14.232,7.356,27.453,19.45,34.955l48.02,29.792c13.052,8.098,29.528,8.249,42.727,0.393l49.67-29.565
	c12.461-7.417,20.096-20.847,20.096-35.348V328.72"/>
</svg>
